<svg width="650" height="216" viewBox="0 0 650 216" fill="none" xmlns="http://www.w3.org/2000/svg">
<path d="M28.0117 84.5051L45.9889 74.1372L35.9543 56.7662H130.327L83.1559 138.497L73.1213 121.096L55.1443 131.494L83.1559 180L166.281 36H0L28.0117 84.5051Z" fill="url(#paint0_linear_118_2)"/>
<path d="M176.24 137V44.84H193.648V137H176.24ZM259.939 137V104.36C259.939 102.781 259.854 100.776 259.683 98.344C259.512 95.8693 258.979 93.3947 258.083 90.92C257.187 88.4453 255.715 86.376 253.667 84.712C251.662 83.048 248.803 82.216 245.091 82.216C243.598 82.216 241.998 82.4507 240.291 82.92C238.584 83.3893 236.984 84.3067 235.491 85.672C233.998 86.9947 232.76 88.9573 231.779 91.56C230.84 94.1627 230.371 97.6187 230.371 101.928L220.387 97.192C220.387 91.7307 221.496 86.6107 223.715 81.832C225.934 77.0533 229.262 73.192 233.699 70.248C238.179 67.304 243.811 65.832 250.595 65.832C256.014 65.832 260.43 66.7493 263.843 68.584C267.256 70.4187 269.902 72.744 271.779 75.56C273.699 78.376 275.064 81.32 275.875 84.392C276.686 87.4213 277.176 90.1947 277.347 92.712C277.518 95.2293 277.603 97.064 277.603 98.216V137H259.939ZM212.707 137V67.88H228.195V90.792H230.371V137H212.707ZM312.898 137L287.81 67.88H305.218L321.602 115.752L337.986 67.88H355.394L330.306 137H312.898ZM366.96 137V44.84H384.368V82.728H425.584V44.84H442.992V137H425.584V98.984H384.368V137H366.96ZM486.688 139.048C481.269 139.048 476.853 138.131 473.44 136.296C470.027 134.461 467.36 132.136 465.44 129.32C463.563 126.504 462.219 123.581 461.408 120.552C460.597 117.48 460.107 114.685 459.936 112.168C459.765 109.651 459.68 107.816 459.68 106.664V67.88H477.344V100.52C477.344 102.099 477.429 104.125 477.6 106.6C477.771 109.032 478.304 111.485 479.2 113.96C480.096 116.435 481.547 118.504 483.552 120.168C485.6 121.832 488.48 122.664 492.192 122.664C493.685 122.664 495.285 122.429 496.992 121.96C498.699 121.491 500.299 120.595 501.792 119.272C503.285 117.907 504.501 115.923 505.44 113.32C506.421 110.675 506.912 107.219 506.912 102.952L516.896 107.688C516.896 113.149 515.787 118.269 513.568 123.048C511.349 127.827 508 131.688 503.52 134.632C499.083 137.576 493.472 139.048 486.688 139.048ZM509.088 137V114.088H506.912V67.88H524.448V137H509.088ZM576.255 138.92C569.386 138.92 563.647 137.32 559.039 134.12C554.431 130.92 550.954 126.568 548.607 121.064C546.303 115.56 545.151 109.352 545.151 102.44C545.151 95.528 546.303 89.32 548.607 83.816C550.911 78.312 554.303 73.96 558.783 70.76C563.263 67.56 568.788 65.96 575.359 65.96C581.972 65.96 587.732 67.5387 592.639 70.696C597.546 73.8533 601.343 78.184 604.031 83.688C606.762 89.1493 608.127 95.4 608.127 102.44C608.127 109.352 606.783 115.56 604.095 121.064C601.45 126.568 597.738 130.92 592.959 134.12C588.18 137.32 582.612 138.92 576.255 138.92ZM542.207 137V44.84H559.743V89.64H557.567V137H542.207ZM573.439 123.432C577.194 123.432 580.266 122.493 582.655 120.616C585.044 118.739 586.815 116.221 587.967 113.064C589.119 109.864 589.695 106.323 589.695 102.44C589.695 98.6 589.098 95.1013 587.903 91.944C586.708 88.744 584.852 86.2053 582.335 84.328C579.86 82.408 576.682 81.448 572.799 81.448C569.172 81.448 566.228 82.3227 563.967 84.072C561.748 85.8213 560.127 88.2747 559.103 91.432C558.079 94.5893 557.567 98.2587 557.567 102.44C557.567 106.621 558.079 110.291 559.103 113.448C560.127 116.605 561.791 119.059 564.095 120.808C566.442 122.557 569.556 123.432 573.439 123.432Z" fill="url(#paint1_linear_118_2)"/>
<defs>
<linearGradient id="paint0_linear_118_2" x1="206.857" y1="59.8681" x2="-75.0142" y2="82.5997" gradientUnits="userSpaceOnUse">
<stop offset="0.100157" stop-color="#0179FF"/>
<stop offset="0.707994" stop-color="#9BC9FF"/>
</linearGradient>
<linearGradient id="paint1_linear_118_2" x1="322.129" y1="-72" x2="47.833" y2="-56.0342" gradientUnits="userSpaceOnUse">
<stop stop-color="#0179FF"/>
<stop offset="1" stop-color="#9BC9FF"/>
</linearGradient>
</defs>
</svg>
