<svg width="194" height="52" viewBox="0 0 194 52" fill="none" xmlns="http://www.w3.org/2000/svg">
<path d="M15.1781 0L10.5759 4.60222L26.8928 20.5008L16.0149 31.3788L20.6171 35.981L36.0973 20.5008L15.1781 0Z" fill="url(#paint0_linear_24_2)"/>
<path d="M20.9695 51.9707L25.5653 47.3621L9.22611 31.4863L20.0889 20.5932L15.4802 15.9974L0.0216806 31.4992L20.9695 51.9707Z" fill="url(#paint1_linear_24_2)"/>
<path d="M44.048 14.76V37H40.4V14.76H44.048ZM60.9335 19.08C62.3202 19.08 63.5575 19.368 64.6455 19.944C65.7548 20.52 66.6188 21.3733 67.2375 22.504C67.8562 23.6347 68.1655 25 68.1655 26.6V37H64.5495V27.144C64.5495 25.5653 64.1548 24.36 63.3655 23.528C62.5762 22.6747 61.4988 22.248 60.1335 22.248C58.7682 22.248 57.6802 22.6747 56.8695 23.528C56.0802 24.36 55.6855 25.5653 55.6855 27.144V37H52.0375V19.368H55.6855V21.384C56.2828 20.6587 57.0402 20.0933 57.9575 19.688C58.8962 19.2827 59.8882 19.08 60.9335 19.08ZM82.8348 33.736L87.8268 19.368H91.6988L84.9788 37H80.6268L73.9388 19.368H77.8428L82.8348 33.736ZM99.5122 17.032C98.8509 17.032 98.2962 16.808 97.8482 16.36C97.4002 15.912 97.1762 15.3573 97.1762 14.696C97.1762 14.0347 97.4002 13.48 97.8482 13.032C98.2962 12.584 98.8509 12.36 99.5122 12.36C100.152 12.36 100.696 12.584 101.144 13.032C101.592 13.48 101.816 14.0347 101.816 14.696C101.816 15.3573 101.592 15.912 101.144 16.36C100.696 16.808 100.152 17.032 99.5122 17.032ZM101.304 19.368V37H97.6562V19.368H101.304ZM118.19 19.08C119.576 19.08 120.814 19.368 121.902 19.944C123.011 20.52 123.875 21.3733 124.494 22.504C125.112 23.6347 125.422 25 125.422 26.6V37H121.806V27.144C121.806 25.5653 121.411 24.36 120.622 23.528C119.832 22.6747 118.755 22.248 117.39 22.248C116.024 22.248 114.936 22.6747 114.126 23.528C113.336 24.36 112.942 25.5653 112.942 27.144V37H109.294V19.368H112.942V21.384C113.539 20.6587 114.296 20.0933 115.214 19.688C116.152 19.2827 117.144 19.08 118.19 19.08ZM135.131 17.032C134.47 17.032 133.915 16.808 133.467 16.36C133.019 15.912 132.795 15.3573 132.795 14.696C132.795 14.0347 133.019 13.48 133.467 13.032C133.915 12.584 134.47 12.36 135.131 12.36C135.771 12.36 136.315 12.584 136.763 13.032C137.211 13.48 137.435 14.0347 137.435 14.696C137.435 15.3573 137.211 15.912 136.763 16.36C136.315 16.808 135.771 17.032 135.131 17.032ZM136.923 19.368V37H133.275V19.368H136.923ZM149.168 22.344V32.104C149.168 32.7653 149.318 33.2453 149.616 33.544C149.936 33.8213 150.47 33.96 151.216 33.96H153.456V37H150.576C148.934 37 147.675 36.616 146.8 35.848C145.926 35.08 145.488 33.832 145.488 32.104V22.344H143.408V19.368H145.488V14.984H149.168V19.368H153.456V22.344H149.168ZM175.891 19.368L165.075 45.288H161.299L164.883 36.712L157.939 19.368H162.003L166.963 32.808L172.115 19.368H175.891Z" fill="url(#paint2_linear_24_2)"/>
<defs>
<linearGradient id="paint0_linear_24_2" x1="23.3366" y1="0" x2="23.3366" y2="35.981" gradientUnits="userSpaceOnUse">
<stop stop-color="#B892F2"/>
<stop offset="1" stop-color="#6200E8"/>
</linearGradient>
<linearGradient id="paint1_linear_24_2" x1="12.811" y1="51.9821" x2="12.7607" y2="16.0012" gradientUnits="userSpaceOnUse">
<stop stop-color="#B892F2"/>
<stop offset="1" stop-color="#6200E8"/>
</linearGradient>
<linearGradient id="paint2_linear_24_2" x1="38" y1="19.5" x2="194" y2="19.5" gradientUnits="userSpaceOnUse">
<stop stop-color="#6708E9"/>
<stop offset="1" stop-color="#370082"/>
</linearGradient>
</defs>
</svg>
